PathFileType	4	(X/Y/Z)	C:/Users/alexw/Dropbox/ABI/BIOMENG 771 Files/BIOMENG_771/KinematicsLab/Left.trc	
DataRate	CameraRate	NumFrames	NumMarkers	Units	OrigDataRate	OrigDataStartFrame	OrigNumFrames	
120.00	120.00	34	8	mm	120.00	1	1491	
Frame#	Time	RAsis			LAsis			RPsis			LPsis			LThighSuperior			LThighInferior			LThighLateral			LPatella			
		X1	Y1	Z1	X2	Y2	Z2	X3	Y3	Z3	X4	Y4	Z4	X5	Y5	Z5	X6	Y6	Z6	X7	Y7	Z7	X8	Y8	Z8	

1	0.000	-567.82654	107.39629	1012.03278	-293.15942	96.15184	1009.32709	-432.69757	315.62292	981.92712	-374.09393	313.17462	984.10370	-234.74469	152.64580	828.93311	-262.20282	158.13618	580.12561	-289.23282	95.54468	692.16119	-310.63702	124.62498	504.68323 
2	0.008	-567.89923	107.29246	1012.16675	-293.31049	96.29861	1009.46490	-432.96613	315.60764	981.88434	-374.38577	313.18909	984.10480	-234.85298	152.79933	829.01422	-262.05109	158.11681	580.31848	-289.16895	95.57664	692.30920	-310.45969	124.57301	504.77835 
3	0.017	-568.02960	107.22314	1012.32855	-293.39642	96.35420	1009.66809	-433.23901	315.53720	981.89490	-374.72504	313.13647	984.12091	-234.99571	152.93777	829.24945	-261.86234	158.21570	580.49872	-289.05627	95.49784	692.52362	-310.37796	124.55275	504.93338 
4	0.025	-568.27448	107.30361	1012.53607	-293.49164	96.40007	1009.92242	-433.44986	315.46194	981.82013	-374.94720	313.05487	984.10022	-235.00601	153.05305	829.51068	-261.68472	158.17195	580.72650	-288.89508	95.43819	692.66888	-310.25119	124.38557	505.03574 
5	0.033	-568.49353	107.38802	1012.68567	-293.54666	96.40405	1010.14069	-433.68127	315.35843	981.80005	-375.16864	312.95224	984.11145	-235.10034	153.12148	829.69110	-261.57159	158.03157	580.86316	-288.73557	95.29786	692.74390	-310.17780	123.97409	504.82394 
6	0.042	-568.70416	107.36257	1012.74866	-293.66022	96.50291	1010.31445	-433.88947	315.40082	981.81000	-375.38068	312.94052	984.09155	-235.27107	153.25476	829.75281	-261.51865	157.88152	580.95435	-288.57898	95.21273	692.79547	-309.98862	123.89210	505.07718 
7	0.050	-568.82703	107.22495	1012.74957	-293.83890	96.46906	1010.51331	-434.15823	315.40747	981.80542	-375.61115	312.89642	984.14447	-235.46646	153.30475	829.80170	-261.48083	157.56120	580.99023	-288.50870	94.94589	692.87408	-309.95187	123.60457	505.00180 
8	0.058	-569.10919	107.14218	1012.81281	-294.12234	96.30908	1010.67865	-434.57965	315.33270	981.83142	-375.90375	312.85098	984.16449	-235.72725	153.22504	829.88898	-261.56189	157.12227	581.01947	-288.56580	94.60278	692.97729	-310.10971	123.17656	504.97778 
9	0.067	-569.40778	106.91626	1012.78143	-294.41104	96.27003	1010.69495	-434.95834	315.29257	981.80408	-376.14438	312.83640	984.15460	-236.05310	153.10796	829.89258	-261.68106	156.58153	580.94617	-288.67667	94.26467	692.98486	-310.09109	122.67834	504.91751 
10	0.075	-569.66010	106.68226	1012.60443	-294.67712	96.15101	1010.72559	-435.37097	315.28094	981.76678	-376.50131	312.77951	984.12225	-236.39069	153.01222	829.86542	-261.78876	155.91882	580.87195	-288.96387	93.84951	692.94904	-310.08447	121.99167	504.75705 
11	0.083	-569.78381	106.38440	1012.42792	-295.01031	95.94292	1010.70453	-435.64767	315.23355	981.78278	-376.87531	312.72626	984.15094	-236.73701	152.79668	829.86145	-262.00772	155.21910	580.75104	-289.36935	93.33952	692.91028	-310.26727	121.40125	504.61145 
12	0.092	-570.04834	106.18243	1012.30493	-295.35620	95.80614	1010.64771	-435.98938	315.15753	981.77795	-377.26395	312.73074	984.09137	-237.11731	152.56992	829.70538	-262.30743	154.49870	580.61670	-289.75070	92.84979	692.88580	-310.36795	120.66837	504.32980 
13	0.100	-570.42944	106.07262	1012.22473	-295.75046	95.69640	1010.70563	-436.36087	315.19522	981.81244	-377.69724	312.72482	984.14795	-237.49582	152.39230	829.69739	-262.53107	154.01016	580.56500	-290.21173	92.39715	692.87189	-310.53976	120.15445	504.20078 
14	0.108	-570.79431	105.93052	1012.24530	-296.11496	95.56086	1010.78827	-436.73492	315.03104	981.78564	-378.12888	312.64264	984.11328	-237.83607	152.20197	829.79688	-262.61871	153.38113	580.63080	-290.40436	91.88882	692.99872	-310.72427	119.49859	504.18808 
15	0.117	-571.21228	105.85738	1012.31360	-296.50488	95.44124	1010.96613	-437.15198	314.98685	981.80328	-378.49374	312.60587	984.12384	-238.14334	152.18680	829.93469	-262.73514	152.87375	580.70844	-290.63535	91.45158	693.16388	-310.86026	118.86793	504.21600 
16	0.125	-571.63153	105.78444	1012.41467	-296.84927	95.50495	1011.09552	-437.54849	314.91476	981.72192	-378.91901	312.60889	984.02557	-238.52930	152.15710	830.00488	-262.85492	152.38132	580.75995	-290.80563	91.11350	693.36462	-310.90097	118.29545	504.15817 
17	0.133	-572.01404	105.78914	1012.47705	-297.18518	95.56838	1011.24280	-437.91681	314.91779	981.68665	-379.28500	312.72330	983.95331	-238.86819	152.12468	830.20801	-262.92084	151.75676	580.83496	-290.87454	90.72695	693.57159	-310.96182	117.66916	504.06870 
18	0.142	-572.32574	105.86995	1012.61676	-297.47949	95.62172	1011.52118	-438.41504	314.90851	981.68762	-379.70865	312.65417	984.02448	-239.19600	152.15306	830.39813	-262.92108	151.07439	580.99908	-291.03598	90.26974	693.85974	-310.95721	117.01769	504.04541 
19	0.150	-572.74811	105.97633	1012.76642	-297.82080	95.71955	1011.77295	-438.85498	315.00525	981.69434	-380.12692	312.67307	984.03601	-239.56407	152.17696	830.54956	-262.96280	150.44081	581.13586	-291.21362	89.71767	694.05060	-310.93201	116.20781	504.02893 
20	0.158	-573.18628	105.96233	1012.94092	-298.12738	95.97726	1012.00928	-439.45575	315.07938	981.70020	-380.57324	312.71506	984.02551	-240.03400	152.28069	830.70880	-263.02060	149.71771	581.20483	-291.51105	89.16621	694.24036	-310.96811	115.24623	503.92334 
21	0.167	-573.63928	106.00214	1013.06030	-298.57813	96.15359	1012.27661	-439.91406	315.12262	981.73492	-381.09085	312.74542	984.06976	-240.39435	152.26756	830.81805	-263.13760	148.75891	581.33765	-291.61414	88.59232	694.50269	-310.96323	114.07218	503.92755 
22	0.175	-574.03729	106.07298	1013.11700	-298.98193	96.32465	1012.44171	-440.45459	315.13525	981.70245	-381.55154	312.97485	984.05579	-240.80399	152.23058	830.93207	-263.23755	147.65524	581.43988	-291.75879	87.97723	694.70044	-310.99191	112.84109	503.73291 
23	0.183	-574.47119	106.02133	1013.02356	-299.40338	96.47665	1012.56586	-440.95377	315.17917	981.68896	-382.15198	313.04880	984.07056	-241.35934	152.07658	830.96100	-263.33896	146.31067	581.49939	-292.02652	87.01311	694.92365	-311.10568	111.08414	503.57648 
24	0.192	-574.86841	105.86909	1012.78577	-299.87930	96.63996	1012.62897	-441.50220	315.30573	981.81787	-382.70032	313.25281	984.15033	-242.10033	151.79442	830.85541	-263.63324	144.69102	581.37366	-292.33804	85.79456	695.12164	-311.29373	109.39742	503.06232 
25	0.200	-575.28589	105.71426	1012.55505	-300.40622	96.80823	1012.63550	-442.23499	315.39178	981.92883	-383.25983	313.46338	984.22711	-242.73508	151.46355	830.80725	-263.80252	142.90173	581.34497	-292.67416	84.64457	695.29791	-311.47205	107.13675	502.75388 
26	0.208	-575.60132	105.55678	1012.30737	-300.91071	97.13280	1012.63727	-442.99600	315.60385	982.05933	-383.88870	313.79150	984.33649	-243.37206	151.13918	830.71930	-264.11938	140.94925	581.30865	-293.05078	83.15665	695.44287	-311.86517	104.92256	502.51141 
27	0.217	-576.04138	105.47367	1012.10400	-301.36465	97.54779	1012.66724	-443.76096	315.88458	982.22174	-384.56494	314.33224	984.50824	-244.17003	150.95171	830.66528	-264.46033	138.75537	581.30402	-293.44196	81.91350	695.70691	-311.88834	102.23544	501.69583 
28	0.225	-576.45276	105.35859	1012.02313	-301.78555	97.98720	1012.81665	-444.46417	316.15936	982.39532	-385.27618	314.70944	984.55334	-244.97087	150.71692	830.60571	-264.88116	136.52176	581.44507	-293.73083	80.31174	696.10162	-312.33771	99.52773	501.01608 
29	0.233	-576.75659	105.26569	1011.88599	-302.20383	98.50204	1012.88879	-445.34055	316.48331	982.74542	-386.02179	315.09286	984.68793	-245.60222	150.45343	830.69324	-265.05582	134.01857	581.54034	-294.01367	78.65121	696.62555	-312.63138	96.45535	500.69547 
30	0.242	-577.08557	105.23303	1011.72656	-302.64075	99.35578	1012.96686	-446.16699	316.95990	983.09180	-386.81320	315.70169	984.87744	-246.24429	150.30779	830.76868	-265.33975	131.42026	581.75269	-294.24423	76.98519	697.08728	-312.77444	92.97040	500.50574 
31	0.250	-577.44055	105.30433	1011.71362	-302.84772	100.26809	1013.14703	-447.12653	317.31519	983.38281	-387.68015	316.31671	985.14355	-246.93025	150.09256	830.82593	-265.59863	128.59219	582.08734	-294.50830	75.06943	697.75934	-312.94711	89.16928	500.24930 
32	0.258	-577.76648	105.44241	1011.66870	-303.02884	101.36312	1013.31427	-448.28613	317.82895	983.75317	-388.58157	317.13785	985.45654	-247.48892	149.91425	830.96838	-265.80945	125.49396	582.49805	-294.75104	73.11468	698.60541	-313.04099	84.92041	500.10623 
33	0.267	-577.95734	105.54087	1011.59955	-303.36224	102.54076	1013.44299	-449.35135	318.40338	984.33551	-389.54977	317.98129	985.87274	-247.99380	149.91891	831.20264	-266.07468	122.13441	582.98730	-294.99213	71.31365	699.53137	-313.11432	80.33338	500.05679 
34	0.275	-578.10950	105.71571	1011.62756	-303.42612	104.14910	1013.61945	-450.56125	319.31638	984.90900	-390.65945	319.18094	986.39056	-248.48267	149.75420	831.52313	-266.27127	118.29085	583.56219	-295.18079	69.05508	700.74371	-312.93564	75.24619	500.30026 
